<?xml version="1.0" encoding="UTF-8"?>
<svg id="Layer_1" data-name="Layer 1" xmlns="http://www.w3.org/2000/svg" xmlns:xlink="http://www.w3.org/1999/xlink" viewBox="0 0 1187.4 797.1">
  <defs>
    <linearGradient id="linear-gradient" x1="306.95" y1="53.27" x2="787.74" y2="53.27" gradientUnits="userSpaceOnUse">
      <stop offset="0" stop-color="#060606"/>
      <stop offset="1" stop-color="#52514f"/>
    </linearGradient>
    <linearGradient id="linear-gradient-2" x1="306.95" y1="136.94" x2="941.94" y2="136.94" gradientUnits="userSpaceOnUse">
      <stop offset="0" stop-color="#e3c920"/>
      <stop offset="1" stop-color="#f5eb16"/>
    </linearGradient>
    <linearGradient id="linear-gradient-3" x1="145.99" y1="241.77" x2="943.63" y2="241.77" gradientUnits="userSpaceOnUse">
      <stop offset="0" stop-color="#59c7d8"/>
      <stop offset="1" stop-color="#0c9eb9"/>
    </linearGradient>
    <linearGradient id="linear-gradient-4" x1="147.24" y1="364.04" x2="1083.59" y2="364.04" gradientUnits="userSpaceOnUse">
      <stop offset="0" stop-color="#ac4399"/>
      <stop offset="1" stop-color="#e93293"/>
    </linearGradient>
  </defs>
  <g>
    <path d="m306.95,100.61S326.05,13.16,453.46,14.81c127.41,1.65,122.19,19.65,235.54,19.04,87.68-.47,98.73-33.85,98.73-33.85,0,0,1.65,77.34-70.52,97.56-72.17,20.22-124.82,1.88-190.88-11.75-66.06-13.63-125.53-11.28-157.5-7.52-31.97,3.76-61.89,22.33-61.89,22.33Z" style="fill: url(#linear-gradient); stroke-width: 0px;"/>
    <path d="m307.4,109.7s-14.22,114.73,116.44,110.8c148.57-4.47,219.49-57.63,312.65-74.99,37.85-7.05,138.46-37.38,205.45-4,0,0-3.76-62.76-83.92-81.34-80.16-18.57-166.75,4.23-222.93,23.04-56.18,18.81-145.9,47.01-226.53,50.31-80.63,3.29-101.16-23.82-101.16-23.82Z" style="fill: url(#linear-gradient-2); stroke-width: 0px;"/>
    <path d="m145.99,331.45s9.05-117.07,196.05-147.16c163.14-26.25,235.44,24.33,365.78,25.4,152.72,1.25,188.05-21.64,235.77-57.61,0,0,6.11,143.86-138.93,164.79-145.04,20.92-230.06-14.1-348.54-22.25-118.48-8.15-180.61-4.31-235.15,6.97-53.06,10.98-74.99,29.85-74.99,29.85Z" style="fill: url(#linear-gradient-3); stroke-width: 0px;"/>
    <path d="m147.24,342.74s26.4,111.65,230.21,113.93c168.31,1.88,187.12-37.61,495.22-42.94,180.54,0,210.63,41.06,210.63,41.06,0,0,12.23-111.57-120.98-164.55-41.76-16.61-94.29-20.62-142.61-18.26-94.69,4.64-184.23,33.91-220.5,42.78-54.77,13.4-151.62,38.79-235.31,47.48-83.69,8.7-129.97,10.02-175.36-.94-29.54-7.13-41.29-18.57-41.29-18.57Z" style="fill: url(#linear-gradient-4); stroke-width: 0px;"/>
  </g>
  <g>
    <path d="m13.38,782.78c-8.92-9.54-13.38-23.03-13.38-40.46v-114.54c0-17.43,4.46-30.92,13.38-40.46,8.92-9.54,21.79-14.32,38.59-14.32s29.67,4.78,38.59,14.32c8.92,9.55,13.38,23.03,13.38,40.46v114.54c0,17.43-4.46,30.92-13.38,40.46-8.92,9.55-21.79,14.32-38.59,14.32s-29.68-4.77-38.59-14.32Zm56.34-38.28v-118.9c0-14.32-5.91-21.48-17.74-21.48s-17.74,7.16-17.74,21.48v118.9c0,14.32,5.91,21.48,17.74,21.48s17.74-7.16,17.74-21.48Z" style="fill: #444545; stroke-width: 0px;"/>
    <path d="m168.85,783.09c-8.61-9.34-12.92-22.51-12.92-39.53v-117.03c0-17.01,4.3-30.19,12.92-39.53,8.61-9.34,21.11-14.01,37.51-14.01s28.89,4.67,37.51,14.01c8.61,9.34,12.92,22.52,12.92,39.53v23.03h-32.37v-25.21c0-13.49-5.71-20.23-17.12-20.23s-17.12,6.75-17.12,20.23v121.7c0,13.28,5.7,19.92,17.12,19.92s17.12-6.64,17.12-19.92v-33.3h32.37v30.81c0,17.02-4.31,30.19-12.92,39.53-8.61,9.34-21.12,14.01-37.51,14.01s-28.9-4.67-37.51-14.01Z" style="fill: #444545; stroke-width: 0px;"/>
    <path d="m315.91,782.94c-8.51-9.44-12.76-22.98-12.76-40.62v-12.45h32.37v14.94c0,14.11,5.91,21.17,17.74,21.17,5.81,0,10.22-1.71,13.23-5.14,3.01-3.42,4.51-8.97,4.51-16.65,0-9.13-2.08-17.17-6.23-24.12-4.15-6.95-11.83-15.3-23.03-25.06-14.11-12.45-23.97-23.7-29.57-33.77-5.6-10.06-8.4-21.42-8.4-34.08,0-17.22,4.36-30.55,13.07-40,8.71-9.44,21.37-14.16,37.97-14.16s28.79,4.72,37.19,14.16c8.4,9.44,12.61,22.98,12.61,40.62v9.03h-32.37v-11.21c0-7.47-1.45-12.92-4.36-16.34-2.91-3.42-7.16-5.14-12.76-5.14-11.41,0-17.12,6.95-17.12,20.85,0,7.89,2.13,15.25,6.38,22.1,4.25,6.85,11.98,15.15,23.19,24.9,14.32,12.45,24.17,23.76,29.57,33.93,5.39,10.17,8.09,22.1,8.09,35.79,0,17.85-4.41,31.54-13.23,41.08-8.82,9.55-21.63,14.32-38.44,14.32s-29.16-4.72-37.66-14.16Z" style="fill: #444545; stroke-width: 0px;"/>
    <path d="m481.5,576.11h46.38l35.48,217.87h-34.24l-6.23-43.26v.62h-38.91l-6.23,42.64h-31.75l35.48-217.87Zm37.35,145.66l-15.25-107.69h-.62l-14.94,107.69h30.81Z" style="fill: #444545; stroke-width: 0px;"/>
    <path d="m610.97,576.11h51.67c17.63,0,30.5,4.1,38.59,12.29,8.09,8.2,12.14,20.8,12.14,37.82v8.71c0,11.21-1.82,20.34-5.45,27.39-3.63,7.06-9.18,12.14-16.65,15.25v.62c17.01,5.81,25.52,20.96,25.52,45.44v18.67c0,16.81-4.41,29.62-13.23,38.44-8.82,8.82-21.74,13.23-38.75,13.23h-53.85v-217.87Zm47.62,88.71c6.85,0,11.98-1.76,15.41-5.29,3.42-3.53,5.13-9.44,5.13-17.74v-12.14c0-7.88-1.4-13.59-4.2-17.12-2.8-3.53-7.21-5.29-13.23-5.29h-16.5v57.58h13.38Zm6.22,98.04c6.02,0,10.48-1.6,13.38-4.82,2.9-3.21,4.36-8.76,4.36-16.65v-18.99c0-9.96-1.71-16.86-5.14-20.7-3.42-3.84-9.08-5.76-16.96-5.76h-15.25v66.92h19.61Z" style="fill: #444545; stroke-width: 0px;"/>
    <path d="m767.84,576.11h50.73c17.63,0,30.5,4.1,38.59,12.29,8.09,8.2,12.14,20.8,12.14,37.82v13.38c0,22.62-7.47,36.94-22.41,42.95v.62c8.3,2.49,14.16,7.58,17.59,15.25,3.42,7.68,5.14,17.95,5.14,30.81v38.28c0,6.22.2,11.26.62,15.1.41,3.84,1.45,7.62,3.11,11.36h-34.86c-1.25-3.53-2.08-6.85-2.49-9.96-.42-3.11-.62-8.71-.62-16.81v-39.84c0-9.96-1.61-16.91-4.82-20.85-3.22-3.94-8.77-5.91-16.65-5.91h-11.83v93.37h-34.24v-217.87Zm46.69,93.37c6.85,0,11.98-1.76,15.41-5.29,3.42-3.53,5.14-9.44,5.14-17.74v-16.81c0-7.88-1.4-13.59-4.2-17.12-2.8-3.53-7.21-5.29-13.23-5.29h-15.56v62.25h12.45Z" style="fill: #444545; stroke-width: 0px;"/>
    <path d="m935.29,782.78c-8.92-9.54-13.38-23.03-13.38-40.46v-114.54c0-17.43,4.46-30.92,13.38-40.46,8.92-9.54,21.79-14.32,38.59-14.32s29.67,4.78,38.59,14.32c8.92,9.55,13.38,23.03,13.38,40.46v114.54c0,17.43-4.46,30.92-13.38,40.46-8.92,9.55-21.79,14.32-38.59,14.32s-29.67-4.77-38.59-14.32Zm56.34-38.28v-118.9c0-14.32-5.91-21.48-17.74-21.48s-17.74,7.16-17.74,21.48v118.9c0,14.32,5.91,21.48,17.74,21.48s17.74-7.16,17.74-21.48Z" style="fill: #444545; stroke-width: 0px;"/>
    <path d="m1080.01,576.11h42.95l33.3,130.41h.62v-130.41h30.5v217.87h-35.17l-41.08-159.05h-.62v159.05h-30.5v-217.87Z" style="fill: #444545; stroke-width: 0px;"/>
  </g>
</svg>